<svg xmlns="http://www.w3.org/2000/svg" width="706.305" height="658.04" viewBox="0 0 706.305 658.04">
  <g id="banner_2" data-name="banner 2" transform="translate(-1063.696 -171.956)">
    <g id="Group_2" data-name="Group 2" transform="matrix(0.951, 0.309, -0.309, 0.951, 1265.14, -140.225)">
      <path id="Path_44" data-name="Path 44" d="M545.1,258.564l-.134-.018.327,1.243a32.664,32.664,0,0,0,1.342,5.1l9.59,36.457a6.179,6.179,0,0,0,5.031,4.535l19.558,3.026a6.179,6.179,0,0,0,6.392-3.19L605.791,271a32.619,32.619,0,0,0,1.59-2.97l.631-1.179-.1-.013a32.861,32.861,0,1,0-62.816-8.277Z" transform="translate(-97.688 -33.084)" fill="#ffe74c"/>
      <path id="Path_45" data-name="Path 45" d="M577.81,305.709a6.727,6.727,0,0,1-1.029-.079l-20.444-3.163a6.746,6.746,0,0,1-5.494-4.952l-10.025-38.108a34.362,34.362,0,0,1-1.408-5.356l-.253-1.667a34.644,34.644,0,0,1,39.657-38.638l-.089.571a34.079,34.079,0,0,0-38.946,38.364l.195,1.247a34.148,34.148,0,0,0,1.4,5.311l10.031,38.13a6.168,6.168,0,0,0,5.024,4.528l20.444,3.163a6.179,6.179,0,0,0,6.383-3.185l.509.272a6.76,6.76,0,0,1-5.951,3.563Z" transform="translate(-93.485 -27.503)" fill="#474747"/>
      <rect id="Rectangle_29" data-name="Rectangle 29" width="36.171" height="0.747" transform="translate(477.072 267.732) rotate(-69.885)" fill="#474747"/>
      <rect id="Rectangle_30" data-name="Rectangle 30" width="0.747" height="36.171" transform="translate(468.455 230.656) rotate(-2.516)" fill="#474747"/>
      <path id="Path_46" data-name="Path 46" d="M601.655,579.567l-26.2-4.053a.747.747,0,1,1,.228-1.476l26.2,4.053a.747.747,0,1,1-.228,1.476Z" transform="translate(-119.058 -284.084)" fill="#474747"/>
      <path id="Path_47" data-name="Path 47" d="M603.982,560.293l-26.2-4.053a.747.747,0,1,1,.228-1.476l26.2,4.053a.747.747,0,1,1-.228,1.476Z" transform="translate(-120.714 -270.373)" fill="#474747"/>
      <path id="Path_48" data-name="Path 48" d="M606.309,541.021l-26.2-4.053a.747.747,0,1,1,.228-1.476l26.2,4.053a.747.747,0,0,1-.228,1.476Z" transform="translate(-122.369 -256.663)" fill="#474747"/>
      <path id="Path_49" data-name="Path 49" d="M598.721,584.9c5.2.8,9.857-1.44,10.409-5.013l-18.817-2.911C589.761,580.549,593.525,584.1,598.721,584.9Z" transform="translate(-130.037 -286.18)" fill="#474747"/>
      <path id="Path_50" data-name="Path 50" d="M625.417,342.139a4.6,4.6,0,0,1-2.549-1.648c-.166-.194-.328-.4-.49-.6a5.831,5.831,0,0,0-1.924-1.791c-1.714-.8-3.733.317-5.481,1.515l-.422-.616c1.922-1.318,4.163-2.535,6.219-1.576a6.471,6.471,0,0,1,2.19,2c.157.2.314.391.475.58.527.616,1.579,1.613,2.705,1.383a3.636,3.636,0,0,0,1.3-.687,6.949,6.949,0,0,1,.918-.579,3.657,3.657,0,0,1,4.014.567,7.213,7.213,0,0,1,.545.576,1.858,1.858,0,0,0,3,.353,3.861,3.861,0,0,1,2.26-.677l.081.011c1.471.228,2.149,1.854,2.533,3.068l-.712.225c-.521-1.65-1.156-2.471-1.988-2.562a3.282,3.282,0,0,0-1.818.592,2.548,2.548,0,0,1-3.921-.518,6.567,6.567,0,0,0-.487-.518,2.934,2.934,0,0,0-3.179-.449,6.3,6.3,0,0,0-.819.52,4.243,4.243,0,0,1-1.579.809A2.455,2.455,0,0,1,625.417,342.139Z" transform="translate(-147.316 -115.528)" fill="#474747"/>
    </g>
    <g id="banner_1" data-name="banner 1">
      <g id="Group_1" data-name="Group 1" transform="translate(1022.79 250.388)">
        <path id="Path_1" data-name="Path 1" d="M545.836,522.551l1.218,14.3a6.333,6.333,0,0,0,6.84,5.763L673.2,532.475a6.33,6.33,0,0,0,5.768-6.834l-1.218-14.3a6.332,6.332,0,0,0-6.84-5.763L551.6,515.717A6.33,6.33,0,0,0,545.836,522.551Z" transform="translate(-252.647 -161.724)" fill="#ff5964"/>
        <path id="Path_2" data-name="Path 2" d="M660.191,592.608l13.214,5.633c3.209,1.368,6.511.86,7.361-1.131l29.185-68.346c.85-1.991-1.068-4.724-4.277-6.092l-13.214-5.633c-3.209-1.368-6.511-.861-7.361,1.131l-29.185,68.346C655.063,588.508,656.983,591.24,660.191,592.608Z" transform="translate(-390.781 -162.019)" fill="#ff5964"/>
        <path id="Path_3" data-name="Path 3" d="M223.956,569.028H447.723a92.4,92.4,0,1,1,58.51,73.645v89.735a7.784,7.784,0,0,1-7.787,7.78H223.956a7.784,7.784,0,0,1-7.787-7.78v-155.6a7.783,7.783,0,0,1,7.787-7.78Z" transform="translate(115.409 -160.581)" fill="#e6e6e6"/>
        <path id="Path_4" data-name="Path 4" d="M369.933,722.1h274.49a8.766,8.766,0,0,0,8.76-8.752v-155.6a8.766,8.766,0,0,0-8.76-8.753H369.933a8.766,8.766,0,0,0-8.76,8.753v155.6a8.766,8.766,0,0,0,8.76,8.752Zm274.49-171.16a6.818,6.818,0,0,1,6.814,6.807v155.6a6.819,6.819,0,0,1-6.814,6.808H369.933a6.818,6.818,0,0,1-6.814-6.807v-155.6a6.819,6.819,0,0,1,6.814-6.808Z" transform="translate(-47.115 -162.918)" fill="#474747"/>
        <path id="Path_5" data-name="Path 5" d="M515.836,533.551l1.218,14.3a6.333,6.333,0,0,0,6.84,5.763L643.2,543.476a6.33,6.33,0,0,0,5.768-6.834l-1.218-14.3a6.332,6.332,0,0,0-6.84-5.763L521.6,526.717a6.33,6.33,0,0,0-5.768,6.834Z" transform="translate(-193.446 -162.026)" fill="#ff5964"/>
        <path id="Path_6" data-name="Path 6" d="M630.191,603.608l13.214,5.633c3.209,1.368,6.511.86,7.362-1.131l29.185-68.346c.85-1.991-1.068-4.724-4.277-6.092l-13.214-5.633c-3.209-1.368-6.511-.86-7.362,1.131l-29.186,68.346C625.063,599.508,626.983,602.24,630.191,603.608Z" transform="translate(-331.58 -162.321)" fill="#ff5964"/>
        <path id="Path_18" data-name="Path 18" d="M0,0H608V2H0Z" transform="translate(139.21 557.612)" fill="#474747"/>
        <path id="Path_10" data-name="Path 10" d="M321.616,623.719a93.36,93.36,0,1,0-93.443-93.36A93.4,93.4,0,0,0,321.616,623.719Zm0-184.776a91.415,91.415,0,1,1-91.5,91.415,91.456,91.456,0,0,1,91.5-91.415Z" transform="translate(320.466 -159.839)" fill="#474747"/>
        <ellipse id="Ellipse_2" data-name="Ellipse 2" cx="52.094" cy="52.048" rx="52.094" ry="52.048" transform="translate(387.118 127.871)" fill="#ff5964"/>
        <path id="Path_11" data-name="Path 11" d="M553.849,355.909l.054-1.945c-3.622-.1-6.815-.328-9.214-2.079a5.977,5.977,0,0,1-2.318-4.4,3.416,3.416,0,0,1,1.122-2.815c1.593-1.344,4.155-.909,6.023-.053l1.611.738L548.039,322.8l-1.929.264,2.627,19.184c-2.538-.746-4.89-.424-6.5.935a5.319,5.319,0,0,0-1.811,4.369,7.907,7.907,0,0,0,3.115,5.906C546.624,355.707,550.63,355.818,553.849,355.909Z" transform="translate(-122.303 -156.699)" fill="#474747"/>
        <rect id="Rectangle_18" data-name="Rectangle 18" width="10.485" height="1.945" transform="translate(403.784 168.017)" fill="#474747"/>
        <rect id="Rectangle_19" data-name="Rectangle 19" width="10.485" height="1.945" transform="translate(436.879 168.017)" fill="#474747"/>
        <path id="Path_12" data-name="Path 12" d="M483.053,547.318H605.7a4.383,4.383,0,0,0,4.38-4.376V444.5A45.078,45.078,0,0,0,565.031,399.5H524.908a4.383,4.383,0,0,0-4.38,4.3l-41.855,139.07v.071A4.383,4.383,0,0,0,483.053,547.318Z" transform="translate(-118.38 -158.808)" fill="#474747"/>
        <path id="Path_13" data-name="Path 13" d="M538.6,440.453l-14.366.113a6.331,6.331,0,0,0-6.277,6.371l.941,119.628a6.332,6.332,0,0,0,6.376,6.271l14.366-.113a6.331,6.331,0,0,0,6.277-6.371l-.941-119.628a6.332,6.332,0,0,0-6.376-6.271Z" transform="translate(-92.459 -159.934)" fill="#ff5964"/>
        <path id="Path_14" data-name="Path 14" d="M553.5,434.893a21.414,21.414,0,0,0-42.828,0v47.653H553.5Z" transform="translate(-92.952 -159.193)" fill="#474747"/>
        <path id="Path_15" data-name="Path 15" d="M445.547,309.813c-4.934-5.072-12.1-5.944-18.846-5.392-7.223.591-14.067,2.988-21.152,4.322-6.989,1.315-14.565,1.9-21.245-1.009a19.541,19.541,0,0,1-11.411-15.54,28.219,28.219,0,0,1,5.117-19.915c4.575-6.459,11.074-11.189,17.83-15.16,14.563-8.56,30.8-16.05,47.841-17.435,15.383-1.25,31.7,3,42.517,14.476,10.144,10.76,14.462,25.777,15.36,40.239,1.146,18.457-3.165,36.685-4.725,54.986-1.214,14.241-.759,31.337,10.816,41.563,10.239,9.046,25.83,8.938,37.9,4,14.348-5.873,24.416-19.059,32.031-32.018,1.939-3.3,3.761-6.664,5.528-10.058.868-1.666,3.389-.193,2.521,1.473-7.126,13.683-15.416,27.351-27.882,36.833-10.9,8.29-25.442,12.284-38.914,8.78a31.4,31.4,0,0,1-16.643-10.507c-4.617-5.748-7.04-12.82-8.051-20.055-1.082-7.744-.7-15.548.079-23.3.944-9.333,2.448-18.6,3.478-27.922,1.754-15.878,2-32.357-4.283-47.359a47.214,47.214,0,0,0-12.295-17.485,45,45,0,0,0-20.524-9.779c-16.507-3.423-33.288,1.211-48.232,8.194A135.749,135.749,0,0,0,390.8,263.831c-6.032,4.314-11.651,9.963-13.974,17.167-2,6.209-1.836,13.558,2.157,18.972,4.267,5.786,11.662,7.23,18.442,6.882,13.926-.715,27.959-8.8,41.971-4.186a20.194,20.194,0,0,1,8.219,5.084c1.311,1.347-.752,3.412-2.065,2.063Z" transform="translate(9.053 -154.407)" fill="#474747"/>
      </g>
      <g id="Group_9" data-name="Group 9" transform="translate(-36.343 -6.327)">
        <g id="Group_8" data-name="Group 8" transform="translate(1108.26 180.327)">
          <path id="Path_126" data-name="Path 126" d="M211.516,267.24s63.686,2.6,72.351,0c0,0-4.766,106.576-3.033,110.042,0,0-70.618,3.9-75.816,0S211.516,267.24,211.516,267.24Z" transform="translate(-203.686 -267.24)" fill="none" stroke="#474747" stroke-miterlimit="10" stroke-width="3"/>
          <path id="Path_127" data-name="Path 127" d="M243.76,313.24s29.46,46.79,39.425,51.122" transform="translate(-226.398 -293.311)" fill="#fff" stroke="#474747" stroke-miterlimit="10" stroke-width="3"/>
          <path id="Path_128" data-name="Path 128" d="M292.253,313.24s-28.16,36.825-32.493,49.389" transform="translate(-235.467 -293.311)" fill="#fff" stroke="#474747" stroke-miterlimit="10" stroke-width="3"/>
          <path id="Path_129" data-name="Path 129" d="M243.76,472.24" transform="translate(-226.398 -383.426)" fill="#fff" stroke="#474747" stroke-miterlimit="10" stroke-width="3"/>
          <path id="Path_130" data-name="Path 130" d="M280.585,472.24H246.359c-2.6,0-2.6,12.131-2.6,12.131h36.825Z" transform="translate(-226.398 -383.426)" fill="#fff" stroke="#474747" stroke-miterlimit="10" stroke-width="3"/>
        </g>
        <g id="Group_4" data-name="Group 4" transform="translate(1273.113 297.365)">
          <path id="Path_117" data-name="Path 117" d="M489.2,265.477s61.086-3.033,72.351,0c0,0-4.766,106.576-3.033,110.042,0,0-78.052,6.1-75.816,0C487.464,362.522,489.2,265.477,489.2,265.477Z" transform="translate(-482.651 -264.129)" fill="none" stroke="#474747" stroke-miterlimit="10" stroke-width="3"/>
          <path id="Path_118" data-name="Path 118" d="M552.71,286s13.595,21.6,18.2,23.594" transform="translate(-522.358 -276.525)" fill="#fff" stroke="#474747" stroke-miterlimit="10" stroke-width="3"/>
          <path id="Path_119" data-name="Path 119" d="M575.089,286s-13,17-15,22.8" transform="translate(-526.541 -276.525)" fill="#fff" stroke="#474747" stroke-miterlimit="10" stroke-width="3"/>
          <path id="Path_120" data-name="Path 120" d="M565.909,372.24H519.986c-3.466,0-3.466,12.131-3.466,12.131h49.389Z" transform="translate(-501.847 -325.402)" fill="#fff" stroke="#474747" stroke-miterlimit="10" stroke-width="3"/>
          <path id="Path_121" data-name="Path 121" d="M567.875,461.24H533.649c-2.6,0-2.6,12.131-2.6,12.131h36.825Z" transform="translate(-510.082 -375.844)" fill="#fff" stroke="#474747" stroke-miterlimit="10" stroke-width="3"/>
          <path id="Path_122" data-name="Path 122" d="M565.909,412.975c3.488,0-41.859,3.9-45.923,0-2.14-2.049-3.466,12.131-3.466,12.131h49.389Z" transform="translate(-501.847 -348.375)" fill="#fff" stroke="#474747" stroke-miterlimit="10" stroke-width="3"/>
          <path id="Path_123" data-name="Path 123" d="M488.87,368.259l2.6,2.6,4.766-6.5" transform="translate(-453.943 -277.015)" fill="#fff" stroke="#474747" stroke-miterlimit="10" stroke-width="3"/>
        </g>
        <g id="Group_6" data-name="Group 6" transform="translate(1101.54 390.767)">
          <path id="Path_103" data-name="Path 103" d="M758,269.24s60.653,7.365,72.351,0c0,0-4.766,106.576-3.033,110.042,0,0-80.5,4.51-75.817,0C763.2,368.018,758,269.24,758,269.24Z" transform="translate(-751.307 -269.24)" fill="none" stroke="#474747" stroke-miterlimit="10" stroke-width="3"/>
          <path id="Path_104" data-name="Path 104" d="M786.21,312.74s8.738,13.864,11.7,15.163" transform="translate(-771.089 -293.894)" fill="#fff" stroke="#474747" stroke-miterlimit="10" stroke-width="3"/>
          <path id="Path_105" data-name="Path 105" d="M800.622,312.74s-8.353,10.944-9.622,14.652" transform="translate(-773.803 -293.894)" fill="#fff" stroke="#474747" stroke-miterlimit="10" stroke-width="3"/>
          <path id="Path_106" data-name="Path 106" d="M836.909,378.74H790.986c-3.466,0-3.466,6.421-3.466,6.421h49.389Z" transform="translate(-771.831 -331.301)" fill="#fff" stroke="#474747" stroke-miterlimit="10" stroke-width="3"/>
          <path id="Path_107" data-name="Path 107" d="M870.879,429.161l-27.565.715v-5.508l24.1-1.628c3.466,0,3.466,6.421,3.466,6.421h-.721" transform="translate(-803.453 -356.238)" fill="#fff" stroke="#474747" stroke-miterlimit="10" stroke-width="3"/>
          <path id="Path_108" data-name="Path 108" d="M836.909,400.29c3.488,0-41.859,2.062-45.923,0-2.14-1.083-3.466,6.416-3.466,6.416h49.389Z" transform="translate(-771.831 -343.454)" fill="#fff" stroke="#474747" stroke-miterlimit="10" stroke-width="3"/>
          <path id="Path_109" data-name="Path 109" d="M767.6,288s67.238,4.969,71.562,1.668" transform="translate(-760.541 -279.872)" fill="#fff" stroke="#474747" stroke-miterlimit="10" stroke-width="3"/>
          <path id="Path_110" data-name="Path 110" d="M913.25,280.519a7.864,7.864,0,0,1,2.794.225,3.125,3.125,0,0,0,2.664-.524" transform="translate(-843.09 -275.463)" fill="#fff" stroke="#474747" stroke-miterlimit="10" stroke-width="2"/>
          <path id="Path_111" data-name="Path 111" d="M912.18,284.85a24.8,24.8,0,0,0,5.883.325" transform="translate(-842.484 -278.087)" fill="#fff" stroke="#474747" stroke-miterlimit="10" stroke-width="2"/>
          <path id="Path_112" data-name="Path 112" d="M912.16,289.7a44.647,44.647,0,0,1,5.03-.563" transform="translate(-842.472 -280.519)" fill="#fff" stroke="#474747" stroke-miterlimit="10" stroke-width="2"/>
          <path id="Path_113" data-name="Path 113" d="M774.739,278.042a5.715,5.715,0,0,0,2.6.524,2.422,2.422,0,0,0,1.62-.351,2.528,2.528,0,0,0,.615-2.032,1.523,1.523,0,0,0-.1-.654,1.3,1.3,0,0,0-.464-.485,5.211,5.211,0,0,0-4.311-.542C772.989,275.2,773.266,277.24,774.739,278.042Z" transform="translate(-763.898 -272.08)" fill="#fff" stroke="#474747" stroke-miterlimit="10" stroke-width="2"/>
          <path id="Path_114" data-name="Path 114" d="M796.073,306.48c-.251,3.206.516,6.39,1.031,9.566a62.514,62.514,0,0,1,.771,12.131q-10.255.624-20.535.3c.637.022.477-14.487.537-15.822.078-1.707-.286-4.644,1.694-5.285,2.079-.68,5.008-.26,7.192-.364Q791.416,306.788,796.073,306.48Z" transform="translate(-766.061 -290.346)" fill="#fff" stroke="#474747" stroke-miterlimit="10" stroke-width="3"/>
        </g>
        <g id="Group_7" data-name="Group 7" transform="translate(1238.687 417.125) rotate(180)">
          <path id="Path_115" data-name="Path 115" d="M0,.385s16.9-.867,19.929,0" transform="translate(0 8.713)" fill="none" stroke="#474747" stroke-miterlimit="10" stroke-width="3"/>
          <path id="Path_116" data-name="Path 116" d="M2.166,0S9.531,7.365,9.531,9.1,0,16.9,0,16.9" transform="translate(17.763 0)" fill="none" stroke="#474747" stroke-miterlimit="10" stroke-width="3"/>
        </g>
        <g id="Group_5" data-name="Group 5" transform="translate(1216.192 253.848)">
          <path id="Path_115-2" data-name="Path 115" d="M681.76,381.736s16.9-.867,19.929,0" transform="translate(-681.76 -372.638)" fill="none" stroke="#474747" stroke-miterlimit="10" stroke-width="3"/>
          <path id="Path_116-2" data-name="Path 116" d="M724.926,361.24s7.365,7.365,7.365,9.1-9.531,7.8-9.531,7.8" transform="translate(-704.997 -361.24)" fill="none" stroke="#474747" stroke-miterlimit="10" stroke-width="3"/>
        </g>
      </g>
    </g>
  </g>
</svg>
