<svg xmlns="http://www.w3.org/2000/svg" width="35.125" height="35.75" viewBox="0 0 35.125 35.75">
  <path id="behance" d="M14.622,23.078c0,1.54-1.1,2.027-2.446,2.027H8.64V20.883h3.607C13.705,20.891,14.622,21.506,14.622,23.078Zm-.6-6.567c0-1.412-1.074-1.748-2.266-1.748h-3.1v3.575H12c1.184,0,2.023-.527,2.023-1.827Zm10.373,1.851a2.355,2.355,0,0,0-2.485,2.37h4.877A2.253,2.253,0,0,0,24.392,18.361ZM35.125,6.08V34.17A3.8,3.8,0,0,1,31.362,38H3.763A3.8,3.8,0,0,1,0,34.17V6.08A3.8,3.8,0,0,1,3.763,2.25h27.6A3.8,3.8,0,0,1,35.125,6.08ZM21.3,14.459h6.1V12.951H21.3Zm-3.371,8.8a3.966,3.966,0,0,0-2.744-4.118,2.976,2.976,0,0,0,2.054-2.953c0-3.048-2.235-3.79-4.814-3.79h-7.1V27.722h7.3C15.367,27.706,17.931,26.373,17.931,23.261ZM29.794,22.08c0-3.28-1.89-6.017-5.3-6.017a5.525,5.525,0,0,0-5.575,5.873c0,3.455,2.14,5.825,5.575,5.825a4.87,4.87,0,0,0,5.1-3.735H26.955a2.475,2.475,0,0,1-2.368,1.444c-1.756,0-2.674-1.045-2.674-2.817H29.77C29.778,22.471,29.794,22.272,29.794,22.08Z" transform="translate(0 -2.25)" fill="#202020"/>
</svg>
